# xmcd
#
# Track frame offsets:
#	150
#	13742
#	25357
#	36150
#	55915
#	68595
#	86175
#	102537
#	113152
#	122387
#	140700
#	152795
#	166035
#	179210
#	194862
#	208575
#
# Disc length: 2951 seconds
#
# Revision: 0
# Processed by: cddbd v1.5.1PL2 Copyright (c) Steve Scherf et al.
# Submitted via: dBpowerAMP V4.0
#
DISCID=eb0b8510
DTITLE=Various Artist - La Belle Époque Country
DYEAR=1999
DGENRE=Country
TTITLE0=André Breton - Un Jour à la Fois
TTITLE1=Bobby Hachey - Mon Sourire ma Limousine
TTITLE2=John Starr - On the Road Again
TTITLE3=Carol Ann King - Le Piège
TTITLE4=Gerry Cormier - Sweet Suzanne
TTITLE5=Marie King - Chérie
TTITLE6=Albert Babin - Je Dis des Mots d'Amour
TTITLE7=André Breton - Simples Oeillets
TTITLE8=Mariette Labbé - Crazy
TTITLE9=John Starr - As Time Goes By
TTITLE10=Mariette Labbé - Les Cowbow du Québec
TTITLE11=Denis Champoux - Folsom Prison Blues
TTITLE12=Albert Babin - Hey Badoo
TTITLE13=Bobby Hachey - Rose Fait de Papier
TTITLE14=Carol Ann King - Ring of Fire
TTITLE15=Denis Champoux - Les nouveaux Cowbows
EXTD=
EXTT0=
EXTT1=
EXTT2=
EXTT3=
EXTT4=
EXTT5=
EXTT6=
EXTT7=
EXTT8=
EXTT9=
EXTT10=
EXTT11=
EXTT12=
EXTT13=
EXTT14=
EXTT15=
PLAYORDER=
